<svg width="257" height="64" viewBox="0 0 257 64" fill="none" xmlns="http://www.w3.org/2000/svg">
<path fill-rule="evenodd" clip-rule="evenodd" d="M61.0998 1.06394C61.0679 1.16614 57.5833 14.667 53.356 31.0658C48.6542 49.3058 45.5993 60.9793 45.4875 61.1328L45.3048 61.3837L42.3792 61.4103C39.5368 61.4362 39.4535 61.4427 39.4535 61.6362C39.4535 61.8329 39.5364 61.8355 45.7781 61.8355C52.02 61.8355 52.1027 61.8329 52.1027 61.6362C52.1027 61.4425 52.0194 61.4361 49.1161 61.4103L46.1295 61.3837L46.098 61.1104C46.0807 60.9601 47.0259 57.1085 48.1984 52.5515L50.3304 44.2659L58.0568 44.2916L65.7832 44.3173L68.1251 52.8505C69.4132 57.5438 70.4687 61.395 70.4706 61.4088C70.4726 61.4227 69.0738 61.4339 67.3621 61.4339C64.317 61.4339 64.25 61.4383 64.25 61.6347C64.25 61.8342 64.317 61.8355 74.7408 61.8355C85.1647 61.8355 85.2316 61.8342 85.2316 61.6347C85.2316 61.4381 85.1647 61.4339 81.9807 61.4339C78.9699 61.4339 78.7261 61.421 78.6811 61.2583C77.8991 58.428 61.2899 1.02238 61.2361 0.963547C61.193 0.916564 61.1318 0.96174 61.0998 1.06394ZM140.62 30.7862C136.381 47.2244 132.835 60.8336 132.739 61.0289L132.566 61.3837L129.572 61.4103C126.793 61.435 126.581 61.4494 126.612 61.6111C126.643 61.7739 127.058 61.787 132.944 61.8112C139.176 61.8367 139.242 61.8349 139.242 61.6369C139.242 61.4423 139.162 61.4362 136.255 61.4103L133.269 61.3837L133.291 61.0065C133.309 60.7 136.864 46.6696 137.399 44.7942L137.549 44.2671H145.272C149.52 44.2671 152.995 44.2947 152.995 44.3285C152.995 44.3622 154.034 48.1775 155.304 52.8069C156.574 57.4362 157.613 61.2712 157.613 61.3289C157.613 61.3998 156.6 61.4339 154.501 61.4339C151.454 61.4339 151.389 61.4382 151.389 61.635C151.389 61.8355 151.439 61.8361 166.371 61.8107C180.548 61.7867 181.355 61.7759 181.387 61.6096C181.418 61.4455 181.223 61.4339 178.412 61.4339C175.921 61.4339 175.395 61.4096 175.35 61.2929C175.32 61.2153 175.357 60.8652 175.432 60.5149C175.551 59.9569 179.416 44.9006 179.558 44.4428C179.609 44.2775 180.068 44.2671 187.336 44.2671C191.583 44.2671 195.059 44.2885 195.059 44.3146C195.059 44.3408 196.098 48.1526 197.368 52.7852C198.638 57.4178 199.677 61.259 199.677 61.321C199.677 61.4022 198.803 61.4339 196.565 61.4339C193.52 61.4339 193.453 61.4383 193.453 61.6347C193.453 61.8342 193.52 61.8355 203.994 61.8355C214.444 61.8355 214.535 61.8338 214.535 61.6361C214.535 61.4418 214.451 61.436 211.256 61.4102L207.978 61.3837L199.264 31.1787C194.471 14.566 190.525 0.949191 190.495 0.919275C190.466 0.889358 190.426 0.883736 190.408 0.906726C190.39 0.929715 186.901 14.4273 182.655 30.9014C178.409 47.3755 174.855 60.9852 174.758 61.1452L174.581 61.436L170.244 61.4099L165.907 61.3837L157.247 31.3669C152.485 14.8577 148.562 1.24856 148.531 1.12427C148.5 0.999989 148.441 0.898393 148.401 0.898393C148.36 0.898393 144.859 14.3479 140.62 30.7862ZM0 2.6995C0 2.90299 0.0412605 2.90621 2.69047 2.90621C4.64919 2.90621 5.41366 2.93893 5.50141 3.02667C5.67689 3.20216 5.67689 61.138 5.50141 61.3135C5.41366 61.4012 4.64919 61.4339 2.69047 61.4339C0.0392526 61.4339 0 61.437 0 61.6411V61.8483L10.9175 61.8071C20.3624 61.7713 22.003 61.7433 23.0809 61.5991C25.9545 61.2147 28.0983 60.6336 30.0068 59.722C33.938 57.8441 36.2736 54.8284 37.2165 50.4132C37.4719 49.217 37.4892 48.977 37.4889 46.6263C37.4887 44.3925 37.4635 44.0006 37.2604 43.0625C36.1614 37.9875 33.1305 34.4108 28.2501 32.4294C26.7865 31.8352 25.338 31.4144 23.7424 31.12C23.0798 30.9977 22.357 30.8613 22.1361 30.8168C21.7554 30.7401 21.7511 30.7354 22.0541 30.7251C22.2299 30.7192 22.9901 30.6006 23.7434 30.4614C30.2921 29.2519 34.3886 25.3176 35.2918 19.3703C35.3715 18.8457 35.4362 17.7389 35.4355 16.9107C35.4317 12.2718 34.029 8.81289 31.1392 6.31557C28.9967 4.46407 26.1917 3.36931 21.9855 2.74297C20.9678 2.59138 19.5979 2.56638 10.4155 2.53195L0 2.4928V2.6995ZM89.8496 17.0686C89.8496 30.8851 89.8586 31.6309 90.0253 31.5989C90.1874 31.5678 90.2058 31.2821 90.2639 27.9023C90.3417 23.3723 90.4892 21.4249 91.0163 17.9648C92.085 10.9514 94.378 5.731 97.2502 3.77288C98.5982 2.8538 98.0168 2.90621 106.863 2.90621C113.943 2.90621 114.646 2.92076 114.646 3.06743C114.646 3.15618 109.04 16.3587 102.188 32.4066C95.3362 48.4544 89.7069 61.641 89.6787 61.71C89.6378 61.8101 92.9718 61.8355 106.152 61.8355H122.677V47.2789C122.677 32.7892 122.676 32.7222 122.477 32.7222C122.281 32.7222 122.276 32.7893 122.275 35.2069C122.272 49.532 119.256 59.0955 114.094 61.1446L113.492 61.3837L105.985 61.4119C99.5962 61.4358 98.4712 61.419 98.4249 61.2983C98.395 61.2204 103.98 48.039 110.836 32.0063C117.691 15.9736 123.324 2.7769 123.352 2.68033C123.401 2.51348 122.557 2.50464 106.627 2.50464H89.8496V17.0686ZM214.635 2.6983C214.635 2.89878 214.693 2.9036 217.421 2.9297L220.207 2.9564L220.232 32.0591C220.251 53.4893 220.228 61.1978 220.144 61.2979C220.055 61.4061 219.481 61.4339 217.333 61.4339C214.702 61.4339 214.635 61.439 214.635 61.6347C214.635 61.834 214.702 61.8355 223.52 61.8355C232.337 61.8355 232.404 61.834 232.404 61.6347C232.404 61.4398 232.337 61.4339 230.115 61.4339C228.469 61.4339 227.793 61.4001 227.706 61.3135C227.613 61.2209 227.586 57.773 227.586 46.4055V31.6179H230.688C233.313 31.6179 233.965 31.6481 234.929 31.8146C239.302 32.5693 241.917 34.8522 242.812 38.6955C242.953 39.3028 242.984 40.5636 243.041 47.9816C243.104 56.2958 243.113 56.5886 243.318 57.3179C243.915 59.4476 244.734 60.7712 246.089 61.7957C247.406 62.7923 248.952 63.3124 250.876 63.4063C254.584 63.587 256.405 61.7915 256.896 57.4685C256.952 56.9716 256.999 54.9274 256.999 52.9258C257 49.7576 256.981 49.2867 256.849 49.2867C256.722 49.2867 256.698 49.5471 256.696 51.0184C256.693 53.7045 256.521 57.274 256.348 58.2716C256.019 60.1716 255.446 61.3872 254.598 61.9861C254.199 62.2678 254.112 62.2873 253.252 62.2873C252.075 62.2873 251.666 62.0977 251.208 61.3393C250.448 60.0822 250.374 58.9873 250.374 48.9353C250.374 43.5898 250.335 40.279 250.265 39.6994C249.717 35.14 246.191 32.6643 238.682 31.5678C237.575 31.4062 237.251 31.3168 237.771 31.3168C237.925 31.3168 238.599 31.2054 239.268 31.0694C245.638 29.7749 249.572 25.9341 250.634 19.9739C250.984 18.0088 250.913 14.7918 250.469 12.4873C249.876 9.41393 248.535 7.09259 246.44 5.51435C244.991 4.4222 242.939 3.56276 240.702 3.11C238.051 2.57371 238.091 2.57522 225.954 2.53305L214.635 2.4936V2.6983ZM156.133 2.77921L156.609 2.81686V5.72266V8.62847H156.214C155.996 8.62847 155.79 8.67365 155.756 8.72886C155.716 8.79401 156.207 8.82925 157.156 8.82925C158.063 8.82925 158.617 8.7912 158.617 8.72886C158.617 8.67365 158.436 8.62847 158.216 8.62847H157.814V7.17281V5.71714H159.22H160.625V7.17281V8.62847H160.223C160.003 8.62847 159.822 8.67365 159.822 8.72886C159.822 8.7912 160.376 8.82925 161.283 8.82925C162.232 8.82925 162.723 8.79401 162.683 8.72886C162.649 8.67365 162.443 8.62847 162.225 8.62847H161.83V5.72266V2.81686L162.307 2.77921C162.569 2.75853 162.106 2.74136 161.278 2.74106C160.449 2.74076 159.964 2.75783 160.198 2.77891L160.625 2.81736V4.16681V5.51636H159.22H157.814V4.16681V2.81736L158.241 2.77891C158.475 2.75783 157.99 2.74076 157.162 2.74106C156.333 2.74136 155.87 2.75853 156.133 2.77921ZM12.9504 16.7601V30.614L15.3347 30.6134C18.1013 30.6127 19.2258 30.4788 20.6991 29.9743C23.6252 28.9725 25.7961 26.6754 26.9253 23.3859C27.9371 20.4382 28.1628 16.2816 27.5073 12.6632C26.5027 7.11709 23.429 3.77318 18.6727 3.05197C18.0469 2.9571 16.8991 2.90721 15.3347 2.90681L12.9504 2.90621V16.7601ZM227.586 17.0624V31.2358L231.074 31.1884C234.141 31.1465 234.668 31.1158 235.431 30.9341C239.042 30.075 241.32 27.5878 242.4 23.3242C242.877 21.4398 243.058 19.6624 243.054 16.9107C243.047 11.4154 242.093 7.994 239.888 5.54196C239.332 4.92466 238.039 4.03992 237.146 3.66717C235.632 3.0345 235.19 2.97969 231.225 2.93241L227.586 2.88904V17.0624ZM183.735 3.52863C183.465 3.79828 183.663 4.31167 184.036 4.31167C184.297 4.31167 184.263 4.40574 183.84 4.84676C183.632 5.0645 183.553 5.19361 183.665 5.13628C184.079 4.92285 184.518 4.29892 184.518 3.92387C184.518 3.51648 184.006 3.25787 183.735 3.52863ZM164.068 5.12173C163.506 5.29098 163.24 5.90618 163.637 6.11871C163.941 6.28134 164.274 6.07222 164.198 5.76704C164.165 5.63794 164.166 5.46095 164.2 5.37371C164.286 5.14943 164.868 5.16831 165.08 5.40222C165.277 5.62047 165.418 6.56273 165.267 6.6561C165.211 6.69043 164.873 6.7601 164.515 6.8108C163.666 6.93107 163.255 7.15092 163.075 7.5819C162.806 8.2252 163.089 8.67003 163.857 8.81359C164.451 8.92452 164.874 8.85686 165.141 8.60819C165.336 8.42638 165.368 8.42267 165.475 8.56854C165.668 8.82885 166.167 8.92513 166.531 8.77203C166.706 8.69834 166.849 8.58179 166.849 8.51282C166.849 8.41534 166.822 8.41434 166.729 8.508C166.559 8.67806 166.28 8.65758 166.207 8.46965C166.174 8.38231 166.146 7.79282 166.146 7.15966C166.146 5.88048 166.035 5.51927 165.566 5.27683C165.187 5.08087 164.455 5.00517 164.068 5.12173ZM169.133 5.16821C168.981 5.25274 168.857 5.36678 168.857 5.42149C168.857 5.47621 168.959 5.45412 169.084 5.3724C169.375 5.18136 169.607 5.30946 169.512 5.60902C169.383 6.0153 169.933 6.30814 170.242 5.99824C170.741 5.4992 169.801 4.79576 169.133 5.16821ZM172.647 5.21148C172.336 5.38063 172.27 5.39007 172.27 5.26559C172.27 5.14391 172.13 5.11771 171.542 5.12986C171.142 5.13809 170.939 5.16369 171.091 5.18668L171.367 5.22854V8.2771V11.3257L171.091 11.3675C170.939 11.3905 171.289 11.4089 171.869 11.4083C172.448 11.4078 172.776 11.389 172.597 11.3668L172.27 11.3263V9.92722C172.27 9.15763 172.301 8.52808 172.338 8.52808C172.375 8.52808 172.486 8.60157 172.586 8.69142C172.81 8.89451 173.561 8.89451 173.95 8.69132C174.509 8.39898 175.082 7.56794 175.081 7.05053C175.077 5.76593 173.633 4.67479 172.647 5.21148ZM177.051 5.13819C176.53 5.27603 175.926 5.89263 175.78 6.43544C175.368 7.96288 176.774 9.24708 178.304 8.74211C178.648 8.62847 179.344 8.02613 179.131 8.02613C179.074 8.02613 178.942 8.1211 178.837 8.23715C178.547 8.5577 178.147 8.72886 177.69 8.72886C176.947 8.72886 176.756 8.48531 176.645 7.39869L176.585 6.82144H177.941C179.451 6.82144 179.431 6.83278 179.142 6.14059C178.928 5.6294 178.525 5.23326 178.099 5.1147C177.68 4.99835 177.57 5.00076 177.051 5.13819ZM181.754 5.10998C181.641 5.15546 181.489 5.26589 181.415 5.35534C181.291 5.50391 181.304 5.50532 181.561 5.3717C181.916 5.18778 182.044 5.26318 181.974 5.61424C181.911 5.92927 182.055 6.11871 182.36 6.11871C182.648 6.11871 182.811 5.93128 182.811 5.59928C182.811 5.39238 182.735 5.28135 182.515 5.1676C182.187 4.99784 182.055 4.98781 181.754 5.10998ZM184.953 5.20485C184.469 5.42902 184.317 5.65912 184.317 6.16709C184.317 6.64726 184.649 6.94924 185.481 7.22601C186.402 7.53261 186.635 7.93296 186.209 8.47548C186.01 8.72786 185.946 8.74733 185.453 8.70637C185.034 8.67164 184.849 8.59825 184.616 8.37539C184.452 8.21787 184.317 8.00976 184.317 7.91289C184.317 7.81601 184.272 7.70889 184.217 7.67476C184.154 7.63601 184.116 7.84131 184.116 8.22179C184.116 8.78086 184.131 8.82172 184.295 8.71932C184.43 8.6353 184.599 8.64483 184.981 8.75828C185.799 9.00102 186.591 8.77966 186.876 8.22892C187.267 7.47348 186.872 6.90015 185.704 6.52679C184.612 6.17774 184.487 5.21519 185.534 5.21519C185.961 5.21519 186.425 5.55602 186.425 5.86913C186.425 5.95768 186.471 6.00225 186.526 5.96812C186.581 5.93399 186.626 5.72809 186.626 5.51044C186.626 5.12795 186.615 5.1148 186.287 5.1148C186.101 5.1148 185.819 5.09141 185.66 5.0628C185.486 5.03148 185.205 5.088 184.953 5.20485ZM167.502 5.20284L167.803 5.26719L167.83 6.94783L167.858 8.62847H167.554C167.387 8.62847 167.251 8.67365 167.251 8.72886C167.251 8.7891 167.652 8.82925 168.255 8.82925C168.857 8.82925 169.259 8.7891 169.259 8.72886C169.259 8.67365 169.143 8.62847 169.003 8.62847H168.747L168.764 6.98257C168.774 6.07734 168.751 5.28677 168.713 5.22573C168.672 5.15947 168.354 5.11962 167.922 5.12665C167.44 5.13458 167.3 5.15987 167.502 5.20284ZM179.975 5.18738L180.302 5.22794V6.92816V8.62847H180.056C179.922 8.62847 179.784 8.67365 179.749 8.72886C179.71 8.79341 180.068 8.82925 180.753 8.82925C181.438 8.82925 181.797 8.79341 181.757 8.72886C181.723 8.67365 181.583 8.62847 181.446 8.62847H181.196L181.205 7.14771C181.21 6.33334 181.212 5.54276 181.21 5.39087L181.205 5.1148L180.427 5.13086C179.999 5.1397 179.796 5.1652 179.975 5.18738ZM172.535 5.4233C172.273 5.6289 172.27 5.64627 172.27 6.93368C172.27 8.18254 172.28 8.24618 172.517 8.4824C172.838 8.80415 173.366 8.81309 173.725 8.50298C174.281 8.02312 174.305 6.02936 173.762 5.45101C173.475 5.14612 172.904 5.13317 172.535 5.4233ZM177.112 5.28235C176.909 5.36407 176.687 5.87636 176.687 6.26427V6.62066H177.554H178.421L178.357 6.15033C178.262 5.45532 178.068 5.21348 177.614 5.22312C177.408 5.22744 177.182 5.25414 177.112 5.28235ZM164.646 6.93097C164.062 7.04541 163.92 7.20463 163.862 7.80617C163.822 8.225 163.85 8.33945 164.038 8.52768C164.216 8.70587 164.335 8.7396 164.62 8.69332C165.171 8.60388 165.284 8.42428 165.327 7.57266C165.369 6.74314 165.41 6.78118 164.646 6.93097ZM54.1218 29.5712C52.1134 37.3818 50.4913 43.7935 50.5174 43.8195C50.5434 43.8456 53.9544 43.8552 58.0976 43.8411L65.6304 43.8154L61.7325 29.6234C59.5888 21.8177 57.821 15.4175 57.8042 15.4007C57.7874 15.384 56.1303 21.7607 54.1218 29.5712ZM144.883 15.706C144.824 15.9269 143.19 22.2741 141.253 29.8109C139.316 37.3477 137.707 43.5932 137.677 43.6899C137.625 43.8561 138.03 43.8656 145.219 43.8656H152.816L152.749 43.5895C152.674 43.2858 145.078 15.5666 145.024 15.4048C145.006 15.3496 144.943 15.4852 144.883 15.706ZM187.036 15.3601C187.021 15.4635 179.811 43.471 179.748 43.6691C179.687 43.863 179.787 43.8656 187.272 43.8656C191.826 43.8656 194.858 43.8286 194.858 43.7731C194.858 43.6828 187.163 15.603 187.084 15.4048C187.062 15.3496 187.04 15.3294 187.036 15.3601ZM12.9504 46.1011C12.9504 59.2207 12.9697 61.2245 13.0969 61.3301C13.2076 61.4221 14.0967 61.4415 16.736 61.4096C20.5175 61.364 20.834 61.324 22.3892 60.6959C25.8541 59.2963 28.1431 55.6836 28.9819 50.2906C29.2062 48.8485 29.2373 44.2324 29.0323 42.8115C28.1629 36.7866 25.8013 33.3252 21.5081 31.7831C19.9071 31.208 19.0654 31.0972 15.8868 31.0434L12.9504 30.9936V46.1011Z" fill="#BBBEA0"/>
</svg>
