<svg width="180" height="77" viewBox="0 0 180 77" fill="none" xmlns="http://www.w3.org/2000/svg">
<path d="M33.8671 42.7525C33.8345 42.7343 33.8019 42.7162 33.7694 42.6981C33.2556 42.4133 33.3216 41.6148 33.8671 41.3965V41.3965C41.2106 37.1286 35.2266 28.7105 28.6761 26.3838C27.7098 26.0406 27.3072 24.6685 28.0339 23.945C29.4862 22.499 31.0102 20.5538 30.6032 18.8674C29.9256 9.52479 15.241 13.3688 10.3057 18.2696C7.24161 22.5808 8.83657 26.2461 13.4504 27.2599C14.0826 27.3988 14.3078 28.6036 13.7338 28.9026C10.0671 30.8128 6.56618 33.6032 5.19677 37.3452C4.15644 40.0614 4.91296 41.811 6.53736 42.7808C7.07427 43.1013 7.14576 44.0054 6.59747 44.3061V44.3061C-0.6107 47.8883 -3.24103 57.8875 5.57311 61.2668C10.0238 62.8839 14.711 63.7534 19.4452 63.8401C26.7868 63.1834 35.8945 62.2384 40.6056 55.9122C43.7002 50.2853 38.8183 45.0268 33.8671 42.7525Z" fill="#FEA57D"/>
<path d="M62.389 46.6467C60.5782 46.6467 58.8752 46.2371 57.28 45.418C55.7279 44.5988 54.4776 43.4132 53.529 41.8611C52.5805 40.309 52.1063 38.4551 52.1063 36.2994C52.1494 33.3245 53.1195 30.9748 55.0165 29.2502C56.9135 27.4825 59.371 26.5987 62.389 26.5987C63.553 26.5987 64.6956 26.7281 65.8165 26.9867C66.9375 27.2454 67.9076 27.7197 68.7267 28.4095C69.3734 28.9269 69.6968 29.5951 69.6968 30.4143C69.6968 31.1041 69.4381 31.7293 68.9207 32.2898C68.4465 32.8502 67.8429 33.1305 67.11 33.1305C66.6357 33.1305 66.2046 33.0011 65.8165 32.7424C65.1698 32.3975 64.5878 32.1604 64.0704 32.0311C63.5962 31.9017 63.0572 31.8371 62.4536 31.8371C61.0309 31.8371 59.8668 32.2466 58.9614 33.0658C58.056 33.885 57.6033 34.9844 57.6033 36.364C57.6033 37.9592 58.0991 39.2095 59.0908 40.1149C60.0824 40.9772 61.2464 41.4084 62.583 41.4084C64.092 41.4084 65.5147 40.8479 66.8513 39.7269C67.3686 39.3389 67.8644 39.1449 68.3387 39.1449C69.0285 39.1449 69.6106 39.4251 70.0848 39.9856C70.6022 40.5461 70.8609 41.1928 70.8609 41.9257C70.8609 42.2275 70.7962 42.5724 70.6669 42.9605C70.5375 43.3054 70.3004 43.6503 69.9555 43.9952C68.7914 44.9437 67.5411 45.612 66.2046 46C64.9111 46.4311 63.6393 46.6467 62.389 46.6467ZM77.4053 46.6467C76.5861 46.6467 75.8963 46.4096 75.3358 45.9353C74.7753 45.4611 74.4951 44.8575 74.4951 44.1245V20.0669C74.4951 19.3771 74.7538 18.7951 75.2711 18.3208C75.8316 17.8035 76.543 17.5448 77.4053 17.5448C78.2244 17.5448 78.8927 17.8035 79.4101 18.3208C79.9274 18.7951 80.1861 19.3987 80.1861 20.1316V44.0599C80.1861 44.7928 79.9059 45.418 79.3454 45.9353C78.828 46.4096 78.1813 46.6467 77.4053 46.6467ZM93.8266 46.6467C90.938 46.6467 88.5883 45.7413 86.7775 43.9305C85.0098 42.0766 84.126 39.6191 84.126 36.558C84.126 33.4969 84.9883 31.0826 86.7128 29.3149C88.4805 27.5041 90.7871 26.5987 93.6326 26.5987C95.659 26.5987 97.4267 27.3101 98.9356 28.7328C99.1081 28.2155 99.4315 27.7843 99.9057 27.4394C100.38 27.0945 100.94 26.9221 101.587 26.9221C102.449 26.9221 103.139 27.1807 103.657 27.6981C104.217 28.1724 104.497 28.7544 104.497 29.4442V44.1245C104.497 44.8575 104.217 45.4611 103.657 45.9353C103.139 46.4096 102.449 46.6467 101.587 46.6467C100.164 46.6467 99.2806 46.0216 98.9356 44.7713C97.556 46.0216 95.853 46.6467 93.8266 46.6467ZM94.2793 41.4084C95.659 41.4084 96.7584 40.9557 97.5776 40.0503C98.3967 39.1018 98.8063 37.9377 98.8063 36.558C98.8063 35.1353 98.3967 33.9928 97.5776 33.1305C96.7584 32.2682 95.659 31.8371 94.2793 31.8371C92.9428 31.8371 91.8434 32.2682 90.9811 33.1305C90.1619 33.9928 89.7524 35.1353 89.7524 36.558C89.7524 37.9377 90.1619 39.1018 90.9811 40.0503C91.8434 40.9557 92.9428 41.4084 94.2793 41.4084ZM107.415 29.1855C107.415 28.3233 107.717 27.6766 108.321 27.2454C108.924 26.8143 109.614 26.5987 110.39 26.5987C110.994 26.5987 111.511 26.7712 111.942 27.1161C112.416 27.4179 112.74 27.849 112.912 28.4095L116.922 38.1748C117.137 38.7353 117.439 39.0155 117.827 39.0155C118.215 39.0155 118.495 38.7353 118.668 38.1748L122.16 28.4095C122.376 27.8059 122.721 27.3532 123.195 27.0514C123.712 26.7496 124.251 26.5987 124.812 26.5987C125.545 26.5987 126.213 26.8358 126.816 27.3101C127.463 27.7843 127.786 28.4095 127.786 29.1855C127.786 29.6167 127.7 30.0263 127.528 30.4143L117.439 53.6958C117.137 54.3426 116.749 54.7953 116.275 55.0539C115.844 55.3557 115.391 55.5066 114.917 55.5066C114.141 55.5066 113.43 55.2264 112.783 54.6659C112.179 54.1485 111.877 53.5234 111.877 52.7905C111.877 52.4024 111.964 52.0575 112.136 51.7557L115.628 45.5473C114.895 45.3317 114.313 44.7928 113.882 43.9305L107.609 30.3496C107.48 29.9616 107.415 29.5736 107.415 29.1855ZM135.415 46.6467C134.596 46.6467 133.928 46.4096 133.41 45.9353C132.893 45.418 132.634 44.7497 132.634 43.9305V33.0658C132.634 32.6347 132.419 32.4191 131.988 32.4191H131.082C130.306 32.4191 129.724 32.182 129.336 31.7077C128.948 31.2335 128.754 30.6299 128.754 29.8969C128.754 29.1209 128.948 28.4957 129.336 28.0215C129.724 27.5041 130.306 27.2454 131.082 27.2454H131.988C132.419 27.2454 132.634 27.0298 132.634 26.5987V25.2406C132.634 22.8693 133.259 21.0586 134.51 19.8083C135.803 18.5148 137.485 17.8681 139.554 17.8681C140.028 17.8681 140.546 17.9112 141.106 17.9975C141.71 18.0406 142.184 18.1268 142.529 18.2562C143.133 18.4717 143.564 18.8166 143.822 19.2909C144.124 19.7651 144.275 20.261 144.275 20.7783C144.275 21.4681 144.059 22.1149 143.628 22.7184C143.197 23.2789 142.594 23.5592 141.818 23.5592C141.473 23.5592 141.149 23.5161 140.847 23.4298C140.546 23.3436 140.222 23.3005 139.877 23.3005C138.843 23.3005 138.325 24.0334 138.325 25.4993V26.5987C138.325 27.0298 138.541 27.2454 138.972 27.2454H141.365C142.098 27.2454 142.701 27.5041 143.176 28.0215C143.693 28.5388 143.952 29.164 143.952 29.8969C143.952 30.6299 143.693 31.2335 143.176 31.7077C142.701 32.182 142.076 32.4191 141.3 32.4191H138.972C138.541 32.4191 138.325 32.6347 138.325 33.0658V43.9305C138.325 44.7066 138.045 45.3533 137.485 45.8707C136.967 46.388 136.277 46.6467 135.415 46.6467ZM159.925 29.3796C159.925 28.5604 160.184 27.8921 160.701 27.3748C161.262 26.8574 161.952 26.5987 162.771 26.5987C163.59 26.5987 164.258 26.8789 164.776 27.4394C165.336 27.9568 165.616 28.6035 165.616 29.3796V38.4982C165.616 40.2658 165.164 41.7748 164.258 43.0251C163.353 44.2323 162.189 45.1377 160.766 45.7413C159.343 46.3449 157.834 46.6467 156.239 46.6467C154.687 46.6467 153.2 46.3449 151.777 45.7413C150.354 45.1377 149.168 44.2323 148.22 43.0251C147.315 41.7748 146.862 40.2658 146.862 38.4982V29.3796C146.862 28.5604 147.121 27.8921 147.638 27.3748C148.198 26.8574 148.888 26.5987 149.707 26.5987C150.527 26.5987 151.195 26.8789 151.712 27.4394C152.273 27.9568 152.553 28.6035 152.553 29.3796V38.2395C152.553 39.1449 152.898 39.8994 153.588 40.503C154.277 41.1066 155.161 41.4084 156.239 41.4084C157.317 41.4084 158.201 41.1066 158.891 40.503C159.581 39.8994 159.925 39.1449 159.925 38.2395V29.3796ZM173.464 46.6467C172.645 46.6467 171.955 46.4096 171.395 45.9353C170.834 45.4611 170.554 44.8575 170.554 44.1245V20.0669C170.554 19.3771 170.813 18.7951 171.33 18.3208C171.891 17.8035 172.602 17.5448 173.464 17.5448C174.284 17.5448 174.952 17.8035 175.469 18.3208C175.987 18.7951 176.245 19.3987 176.245 20.1316V44.0599C176.245 44.7928 175.965 45.418 175.405 45.9353C174.887 46.4096 174.24 46.6467 173.464 46.6467Z" fill="#8A786A"/>
</svg>
