<svg width="239" height="64" viewBox="0 0 239 64" fill="none" xmlns="http://www.w3.org/2000/svg">
<path fill-rule="evenodd" clip-rule="evenodd" d="M142.836 1.89375C141.873 2.88843 141.156 3.30247 139.874 3.60485C137.994 4.04806 135.951 3.73803 131.375 2.31461C130.215 1.95411 128.786 1.57031 128.198 1.46183C126.7 1.18545 123.608 1.19122 122.192 1.47301C117.978 2.3112 114.03 4.608 110.143 8.48105C107.082 11.5312 104.783 14.6883 103.434 17.6967L103.078 18.4909H107.815H112.552L112.755 17.2261C113.636 11.7428 115.317 7.67545 117.803 5.0138C119.393 3.31164 120.646 2.51592 122.54 2.00635C123.865 1.64985 126.533 1.63938 128.129 1.98423C130.759 2.55263 132.107 3.39365 134.961 6.2472C138.636 9.92247 141.065 14.0441 143.145 20.1381L143.768 21.9618L143.773 11.4608C143.776 5.68527 143.764 0.964962 143.748 0.971198C143.732 0.977316 143.322 1.39253 142.836 1.89375ZM68.4179 2.14801C64.0441 2.50604 59.3191 4.39974 55.5755 7.29483C51.7009 10.2913 48.2016 14.6444 46.292 18.8439C44.3623 23.0874 43.4898 27.4551 43.4951 32.8451C43.498 35.885 43.6564 37.4917 44.2375 40.3752C45.2123 45.2125 47.5251 50.1921 50.3985 53.6403C54.5229 58.5897 60.977 62.027 67.7015 62.8556C69.1177 63.0301 72.057 62.9395 73.652 62.672C80.5008 61.5237 86.4014 57.6989 91.267 51.2538C94.5544 46.8994 96.2359 42.762 97.0274 37.0808C97.3125 35.034 97.313 30.3088 97.0283 28.2565C96.1801 22.1436 94.1839 17.0699 91.1258 13.2545C87.2222 8.38398 82.3927 4.87767 77.2165 3.1561C75.4165 2.55734 74.1686 2.31085 72.0653 2.13836C70.4879 2.00894 70.1047 2.01 68.4179 2.14801ZM69.1827 2.45062C66.3757 2.65123 63.7894 3.86946 61.8206 5.91811C60.1674 7.63827 59.302 9.29371 57.9974 13.2317C55.1955 21.6889 54.3943 32.9593 55.7092 45.419C56.2099 50.1622 57.4732 54.263 59.2831 57.02C59.9607 58.0521 61.4832 59.6547 62.4258 60.3281C64.7157 61.9639 68.3217 62.8446 71.4078 62.5219C74.6365 62.1843 76.6664 61.2819 78.6038 59.323C83.0694 54.8076 85.0933 47.6986 85.4217 35.3748C85.7888 21.6008 84.4397 13.7962 80.6263 7.63133C78.645 4.42833 75.2878 2.68723 70.6534 2.4591C70.1357 2.43356 69.4739 2.4298 69.1827 2.45062ZM0 3.04915C0 3.2394 0.184134 3.25587 2.3028 3.25505L4.60571 3.25423L16.7136 32.551C23.3729 48.6642 28.8642 61.9461 28.9165 62.0663C28.9837 62.2208 31.7544 53.6297 38.3559 32.799L47.7003 3.31306H50.2055C52.6321 3.31306 52.7106 3.30564 52.7106 3.07774C52.7106 2.84595 52.6321 2.84242 47.4749 2.84242C42.5118 2.84242 42.2391 2.85348 42.2391 3.05421C42.2391 3.25293 42.3912 3.26282 44.7276 3.21563C47.1179 3.1674 47.2135 3.1741 47.1542 3.38636C47.1204 3.50778 44.0568 13.2109 40.3463 24.9488C35.8656 39.1238 33.5658 46.2356 33.4978 46.1271C33.4416 46.0374 29.4103 36.3807 24.5396 24.6679L15.6838 3.37188L18.1958 3.34012C20.6104 3.30964 20.7077 3.29941 20.7077 3.07539C20.7077 2.84501 20.5953 2.84242 10.3539 2.84242C0.555109 2.84242 0 2.85348 0 3.04915ZM150.131 3.07774C150.131 3.30564 150.21 3.31306 152.602 3.31306H155.073V10.902V18.4909H160.544H166.015V10.902V3.31306H168.427C170.76 3.31306 170.839 3.30541 170.839 3.07774C170.839 2.84419 170.76 2.84242 160.485 2.84242C150.21 2.84242 150.131 2.84419 150.131 3.07774ZM189.311 3.05256C189.311 3.24752 189.483 3.26246 191.694 3.25846L194.076 3.25423L194.107 10.8726L194.137 18.4909H194.43H194.723V10.9183V3.34588L195.341 3.27164C195.681 3.23081 196.846 3.19693 197.93 3.19646L199.9 3.1954V10.8431V18.4909H204.901H209.901V10.9054V3.31988L213.402 3.28705C217.725 3.24646 219.496 3.34259 221.354 3.71874C225.252 4.50799 228.885 6.44628 230.973 8.85097C233.132 11.3368 234.736 14.0334 235.612 16.6492C236.023 17.8791 236.492 20.2445 236.492 21.091C236.492 21.4715 236.532 21.55 236.727 21.55C236.96 21.55 236.962 21.4715 236.962 12.1962V2.84242H213.137C190.341 2.84242 189.311 2.85148 189.311 3.05256ZM0.18484 4.20384C0.083184 4.30562 0.00341207 4.47763 0.00741243 4.58623C0.012707 4.72389 0.0480043 4.7013 0.124129 4.51152C0.273554 4.13901 0.470631 4.29785 0.470631 4.79072C0.470631 5.01344 0.523576 5.19558 0.588288 5.19558C0.653 5.19558 0.705946 5.11369 0.705946 5.01356C0.705946 4.85755 0.746185 4.86178 0.98856 5.04298C1.1934 5.19617 1.23799 5.29488 1.15069 5.40148C1.06786 5.50255 1.06927 5.54855 1.15552 5.54855C1.33706 5.54855 1.64721 5.06627 1.64721 4.78378C1.64721 4.49587 1.33577 4.019 1.14775 4.019C1.07445 4.019 1.13045 4.12701 1.272 4.2589C1.53367 4.50257 1.61944 5.0085 1.42001 5.13169C1.26941 5.22487 1.11775 4.96167 1.11775 4.60729C1.11775 4.35809 1.05598 4.30726 0.713711 4.27467C0.41792 4.24643 0.354855 4.20761 0.478396 4.12936C0.581935 4.06383 0.593583 4.02194 0.508399 4.02077C0.432157 4.01982 0.286614 4.10219 0.18484 4.20384ZM0.705946 4.54846C0.705946 4.64553 0.758892 4.72495 0.823603 4.72495C0.888315 4.72495 0.941261 4.64553 0.941261 4.54846C0.941261 4.45139 0.888315 4.37197 0.823603 4.37197C0.758892 4.37197 0.705946 4.45139 0.705946 4.54846ZM0.00741243 4.98132C-0.00105892 5.20793 0.303204 5.55032 0.508399 5.54502C0.584758 5.54302 0.551108 5.48549 0.433686 5.41724C0.316381 5.349 0.174133 5.17852 0.117658 5.0385C0.0414155 4.84955 0.0129423 4.83484 0.00741243 4.98132ZM223.985 20.2931C223.857 22.68 223.461 24.0673 222.411 25.8119C220.64 28.7543 217.384 30.5561 213.056 30.9888C211.905 31.1038 211.666 31.1609 211.666 31.3199C211.666 31.4798 211.912 31.5359 213.126 31.6537C216.152 31.9472 217.947 32.7863 220.167 34.9454C222.442 37.1589 223.724 39.8556 223.965 42.9351C224.04 43.8888 224.078 44.0226 224.271 44.0226C224.484 44.0226 224.491 43.6562 224.491 31.4921C224.491 19.3859 224.483 18.9615 224.273 18.9615C224.079 18.9615 224.049 19.1025 223.985 20.2931ZM197.43 19.7957C194.415 20.1837 192.188 21.0743 190.777 22.4562C189.473 23.7325 189.193 24.611 189.194 27.4282C189.195 29.8318 189.321 30.6734 189.836 31.7274C191.153 34.4209 194.492 35.6561 200.077 35.5157C202.598 35.4523 203.77 35.2626 205.194 34.6874L205.905 34.4004L206.276 34.9171L206.647 35.4336H208.686H210.725V33.8642C210.725 33.001 210.69 31.1744 210.647 29.805L210.57 27.3152H205.412H200.253V28.08V28.8448H200.959C201.627 28.8448 201.665 28.8599 201.665 29.1293C201.665 29.8124 201.212 30.139 200.266 30.139C199.536 30.139 199.112 29.815 198.956 29.1389C198.787 28.4078 198.817 26.4253 199.003 25.9786C199.21 25.4847 199.718 25.2639 200.456 25.3472C201.108 25.4206 201.364 25.6769 201.474 26.367L201.55 26.8446H205.961H210.372L210.37 26.3445C210.361 24.5097 209.737 22.8808 208.694 21.9684C207.453 20.8826 205.575 20.1507 203.246 19.8455C201.798 19.6556 198.722 19.6293 197.43 19.7957ZM100.715 27.6682V35.4336H109.363H118.011V32.551V29.6684H114.069H110.128V24.7856V19.9028H105.421H100.715V27.6682ZM120.128 27.6682V35.4336H124.835H129.541V27.6682V19.9028H124.835H120.128V27.6682ZM132.232 21.8723C132.735 22.9569 134.354 26.4525 135.831 29.6404L138.516 35.4365L142.757 35.4056L146.999 35.3748L150.214 28.6094C151.982 24.8885 153.637 21.4073 153.892 20.8735L154.356 19.9028L149.743 19.903L145.131 19.9033L144.211 22.5797C143.705 24.0517 143.224 25.415 143.143 25.6092C143 25.9482 142.955 25.8426 141.994 22.9619L140.993 19.9616L136.156 19.9309L131.319 19.9002L132.232 21.8723ZM155.19 27.6682V35.4336H159.897H164.603V27.6682V19.9028H159.897H155.19V27.6682ZM166.603 27.6682V35.4336H171.074H175.545V32.6451C175.545 31.0237 175.589 29.9034 175.649 29.9684C175.707 30.0298 176.373 31.2847 177.13 32.7569L178.506 35.4336H183.026H187.546V27.6682V19.9028H183.078H178.609L178.577 22.4347L178.545 24.9665L177.134 22.4367L175.722 19.9068L171.162 19.9048L166.603 19.9028V27.6682ZM100.481 37.5808C100.482 38.1078 101.109 41.1496 101.479 42.4214C103.001 47.6612 106.643 53.2821 110.875 56.9206C115.46 60.8631 120.615 62.7049 126.305 62.4341C129.244 62.2944 130.855 61.8742 134.659 60.2562C136.902 59.3021 138.08 58.8741 139.543 58.4808C140.38 58.2559 140.848 58.2114 142.425 58.2063C144.267 58.2005 144.322 58.2076 145.013 58.5415C145.508 58.7805 146.045 59.2101 146.807 59.9756L147.896 61.0685V49.2511V37.4338H150.013C151.347 37.4338 152.131 37.3902 152.131 37.3161C152.131 37.2386 148.837 37.1985 142.483 37.1985C136.13 37.1985 132.835 37.2386 132.835 37.3161C132.835 37.3906 133.7 37.4338 135.194 37.4338H137.552L137.516 44.8168L137.48 52.1998L137.099 53.5897C136.167 56.9931 134.553 59.1617 131.876 60.6053C129.129 62.0875 125.13 62.5254 122.275 61.6571C119.934 60.9453 117.713 59.1041 116.433 56.8156C115.348 54.8758 113.884 50.5417 113.144 47.0791C112.525 44.1801 111.892 39.4884 111.892 37.79V37.1985H106.186H100.48L100.481 37.5808ZM155.049 41.5812C155.014 48.1438 155.061 48.9276 155.608 51.0346C156.873 55.9038 160.017 59.1748 165.487 61.3136C171.468 63.6517 179.598 63.7947 184.958 61.6563C190.001 59.644 193.331 55.4467 194.382 49.7749C194.606 48.5678 194.636 47.8768 194.689 42.8166L194.748 37.1985H194.452H194.157L194.104 42.699C194.049 48.4916 194.006 49.0347 193.425 51.2585C192.167 56.0662 188.617 59.8147 183.848 61.371C181.857 62.0207 180.724 62.1885 178.31 62.1911C176.414 62.1931 175.908 62.1542 174.973 61.9347C172.81 61.4264 171.196 60.5676 169.64 59.0951C167.945 57.4923 166.843 55.6063 166.265 53.3214C166.023 52.3625 166.015 52.0943 166.015 44.765V37.1985H160.544H155.073L155.049 41.5812ZM199.9 49.1407V61.083H197.135C194.756 61.083 194.37 61.1075 194.37 61.2594C194.37 61.4157 196.926 61.4359 216.667 61.4359H238.963V50.6028C238.963 40.349 238.952 39.7717 238.757 39.809C238.584 39.8421 238.537 40.0368 238.468 41.0129C238.174 45.1305 236.611 49.2091 234.026 52.6056C230.376 57.3997 225.795 59.8697 218.843 60.7922C217.209 61.0091 211.926 61.1633 210.684 61.0305L209.901 60.9466V49.0725V37.1985H204.901H199.9V49.1407Z" fill="#BBBEA0"/>
</svg>
