<svg width="100" height="77" viewBox="0 0 100 77" fill="none" xmlns="http://www.w3.org/2000/svg">
<path fill-rule="evenodd" clip-rule="evenodd" d="M16.9335 28.2965C11.3369 43.8599 6.00402 58.6907 5.08247 61.2542L3.40729 65.9153L0.641277 66.0292C-0.879913 66.0917 0.399247 66.1437 3.48412 66.1447C6.56899 66.1454 7.98412 66.0934 6.62848 66.0288C5.27283 65.9646 4.16432 65.8038 4.165 65.6716C4.16534 65.5397 5.82182 60.8425 7.84577 55.2336L11.5255 45.0357L21.8679 44.946L32.2107 44.8562L35.8761 55.1439C37.8923 60.8021 39.5362 65.5407 39.5294 65.6743C39.5226 65.8075 38.0252 65.9707 36.2025 66.0366C34.3797 66.1026 42.0663 66.1417 53.284 66.123L73.6798 66.0897L76.9496 65.1967C83.1472 63.5038 87.6717 60.9309 91.5612 56.8874C97.6871 50.5181 100.364 42.4128 99.9102 31.6085C99.1756 14.1098 88.9097 3.00907 71.6321 1.02999C67.6059 0.568704 44.2758 0.555787 44.2758 1.01469C44.2758 1.21865 45.6355 1.35462 47.6751 1.35462H51.0744V33.4781C51.0744 51.146 51.0228 65.6015 50.9595 65.6015C50.8963 65.6015 45.5805 50.8411 39.1469 32.8006C32.7131 14.7601 27.3728 0 27.2793 0C27.1858 0 22.5301 12.7335 16.9335 28.2965ZM61.6123 33.6973V66.0404L66.6263 65.8385C74.2346 65.5319 76.9153 64.5702 80.3703 60.9064C83.8672 57.1984 85.9727 52.3884 87.3172 45.0357C88.1684 40.3814 88.1819 25.678 87.3399 20.439C86.2426 13.6122 84.5134 9.32362 81.6267 6.27138C78.2097 2.6586 74.1914 1.3876 66.1164 1.36652L61.6123 1.35462V33.6973ZM16.8227 30.1675C14.1566 37.597 11.9766 43.8674 11.9786 44.1009C11.9817 44.4313 14.2239 44.5258 22.0467 44.5258C29.9579 44.5258 32.0764 44.4351 31.9489 44.1009C31.8598 43.8674 29.5976 37.5957 26.9217 30.1638C24.2457 22.7318 21.9696 16.6532 21.8635 16.6552C21.7574 16.6573 19.4891 22.7376 16.8227 30.1675ZM0.644677 70.7923C0.538278 71.2165 0.651475 72.0963 0.896905 72.7469C1.142 73.3975 1.53326 74.4272 1.76679 75.0346C2.03465 75.7322 2.42353 76.1394 2.82227 76.1394C3.41885 76.1394 3.40933 76.0225 2.64857 74.0148C0.894866 69.3877 0.967951 69.505 0.644677 70.7923ZM4.84384 73.0552C4.84384 75.9212 4.89245 76.1394 5.52914 76.1394C6.17127 76.1394 6.209 75.9507 6.12402 73.1691C6.04754 70.6529 5.9425 70.1811 5.43872 70.0845C4.90741 69.9829 4.84384 70.3007 4.84384 73.0552ZM7.15537 70.4286C7.65813 70.9313 7.69042 72.2815 7.2067 72.5803C6.96025 72.7326 6.96569 72.9396 7.22404 73.2507C7.42936 73.4985 7.67445 74.1243 7.76827 74.6413C7.98378 75.8304 8.17686 76.1394 8.70478 76.1394C9.26668 76.1394 9.01105 73.9159 8.39 73.4006C8.00316 73.0797 8.01268 72.889 8.44949 72.2227C8.92947 71.4898 8.91519 71.3725 8.2666 70.724C7.87976 70.3371 7.37973 70.0206 7.15537 70.0206C6.83822 70.0206 6.83822 70.1114 7.15537 70.4286ZM11.0404 70.2481C10.3986 70.5064 9.60287 72.2271 9.60287 73.3571C9.60287 73.9023 9.92003 74.7511 10.3075 75.2437C11.1353 76.2961 11.8393 76.4627 11.3144 75.482C11.121 75.1203 10.9626 74.0393 10.9626 73.08C10.9626 72.1207 11.121 71.0397 11.3144 70.6781C11.5082 70.3164 11.6227 70.0329 11.5694 70.0475C11.516 70.0621 11.2781 70.1525 11.0404 70.2481ZM13.4641 70.7698C13.9628 71.5683 14.3619 71.5469 14.3619 70.7216C14.3619 70.2865 14.145 70.0791 13.7225 70.1111C13.1949 70.1508 13.1497 70.2661 13.4641 70.7698ZM15.7216 73.08C15.7216 75.9127 15.7719 76.1394 16.4015 76.1394C17.031 76.1394 17.0813 75.9127 17.0813 73.08C17.0813 70.2474 17.031 70.0206 16.4015 70.0206C15.7719 70.0206 15.7216 70.2474 15.7216 73.08ZM18.781 73.08C18.781 75.9127 18.8313 76.1394 19.4609 76.1394C20.0904 76.1394 20.1407 75.9127 20.1407 73.08C20.1407 70.2474 20.0904 70.0206 19.4609 70.0206C18.8313 70.0206 18.781 70.2474 18.781 73.08ZM22.1803 73.08C22.1803 75.9127 22.2306 76.1394 22.8602 76.1394C23.4897 76.1394 23.54 75.9127 23.54 73.08C23.54 70.2474 23.4897 70.0206 22.8602 70.0206C22.2306 70.0206 22.1803 70.2474 22.1803 73.08ZM24.5649 70.7855C24.569 71.3491 24.6479 71.4279 24.8647 71.0853C25.0269 70.8297 25.3689 70.4877 25.6245 70.3256C25.9671 70.1087 25.8883 70.0298 25.3247 70.0257C24.7549 70.022 24.5612 70.2158 24.5649 70.7855ZM26.5994 73.08C26.5994 75.7668 26.6718 76.1394 27.1943 76.1401C27.7249 76.1407 27.7773 75.8103 27.6801 73.0807C27.5954 70.7056 27.4622 70.0206 27.0852 70.0206C26.7 70.0206 26.5994 70.6546 26.5994 73.08ZM29.0578 70.7005C29.5616 71.5072 30.1605 71.6129 29.8651 70.8426C29.7516 70.5468 29.6588 70.2409 29.6588 70.1627C29.6588 70.0845 29.428 70.0206 29.1462 70.0206C28.7182 70.0206 28.7036 70.1335 29.0578 70.7005ZM31.0185 73.08C31.0185 75.8994 31.0712 76.1394 31.6895 76.1394C32.3089 76.1394 32.3595 75.9042 32.3459 73.08C32.333 70.2885 32.2742 70.0206 31.6749 70.0206C31.0749 70.0206 31.0185 70.2834 31.0185 73.08ZM34.1102 70.6155C34.3604 70.9429 34.6085 71.2743 34.6616 71.3521C34.7146 71.43 34.7578 71.1621 34.7578 70.7573C34.7578 70.3045 34.5453 70.0206 34.2064 70.0206C33.7342 70.0206 33.7203 70.1063 34.1102 70.6155ZM36.5407 70.7868C35.1344 72.2934 35.2853 74.9901 36.8215 75.8124C37.7505 76.3097 37.8192 76.2206 37.2892 75.2046C36.7151 74.1042 36.6573 72.4726 37.1468 71.1852C37.6064 69.9764 37.4147 69.8503 36.5407 70.7868ZM39.392 70.8038C39.7371 71.2145 40.0593 71.6142 40.1079 71.6921C40.1569 71.7699 40.1966 71.4582 40.1966 70.9993C40.1966 70.3949 39.9995 70.1505 39.4807 70.1114C38.7795 70.0587 38.7778 70.0726 39.392 70.8038ZM40.8765 70.7573C40.8765 71.1621 40.9197 71.43 40.9727 71.3521C41.0257 71.2743 41.2739 70.9429 41.5241 70.6155C41.914 70.1063 41.9 70.0206 41.4279 70.0206C41.089 70.0206 40.8765 70.3045 40.8765 70.7573ZM42.5762 73.08C42.5762 75.9127 42.6265 76.1394 43.256 76.1394C43.8856 76.1394 43.9359 75.9127 43.9359 73.08C43.9359 70.2474 43.8856 70.0206 43.256 70.0206C42.6265 70.0206 42.5762 70.2474 42.5762 73.08ZM45.1542 70.7855C45.5084 71.2063 45.8381 71.6142 45.8867 71.6921C45.9357 71.7699 45.9755 71.4256 45.9755 70.9272C45.9755 70.2256 45.8099 70.0206 45.2429 70.0206C44.5192 70.0206 44.5182 70.0298 45.1542 70.7855ZM46.9953 72.2081C46.9953 74.9789 47.4141 76.1394 48.4145 76.1394C49.0029 76.1394 49.0801 76.0486 48.7629 75.7315C48.5154 75.484 48.355 74.281 48.355 72.6721C48.355 70.2474 48.2969 70.0206 47.6751 70.0206C47.0656 70.0206 46.9953 70.2474 46.9953 72.2081ZM53.114 73.08C53.114 75.9127 53.1643 76.1394 53.7939 76.1394C54.4234 76.1394 54.4737 75.9127 54.4737 73.08C54.4737 70.2474 54.4234 70.0206 53.7939 70.0206C53.1643 70.0206 53.114 70.2474 53.114 73.08ZM55.7376 71.3583C55.8712 72.3543 55.8008 72.7401 55.4857 72.7401C55.1658 72.7401 55.192 72.9002 55.5822 73.335C55.8763 73.6623 56.1676 74.3874 56.2298 74.9466C56.3012 75.5846 56.5636 76.0055 56.9345 76.0758C57.4325 76.17 57.4923 76.0095 57.3128 75.0587C57.1956 74.438 56.9056 73.7004 56.6683 73.4199C56.3172 73.0049 56.3294 72.8254 56.7339 72.4542C57.3825 71.8593 57.2061 71.0727 56.2879 70.4642C55.5673 69.9866 55.5561 70.0047 55.7376 71.3583ZM60.3205 70.8569C60.1105 71.3185 60.0591 71.7706 60.2067 71.862C60.3542 71.9531 60.755 72.9529 61.0976 74.0835C61.5654 75.6285 61.8754 76.1394 62.3459 76.1394C62.6902 76.1394 62.972 76.0734 62.972 75.9925C62.972 75.791 60.9164 70.2314 60.7981 70.1131C60.7458 70.0607 60.531 70.3952 60.3205 70.8569ZM64.8416 73.079C64.8416 75.7655 64.914 76.138 65.4365 76.1387C65.959 76.1394 66.0314 75.7672 66.0314 73.08C66.0314 70.3932 65.959 70.0206 65.4365 70.0203C64.914 70.02 64.8416 70.3922 64.8416 73.079ZM71.8102 73.08C71.8102 75.9127 71.8605 76.1394 72.4901 76.1394C73.1196 76.1394 73.1699 75.9127 73.1699 73.08C73.1699 70.2474 73.1196 70.0206 72.4901 70.0206C71.8605 70.0206 71.8102 70.2474 71.8102 73.08ZM77.589 73.08C77.589 75.5727 77.6835 76.1394 78.0989 76.1394C78.5143 76.1394 78.6088 75.5727 78.6088 73.08C78.6088 70.5873 78.5143 70.0206 78.0989 70.0206C77.6835 70.0206 77.589 70.5873 77.589 73.08ZM81.2113 70.4058C80.2174 70.9833 79.5994 72.8132 79.9665 74.0927C80.2823 75.194 80.8908 76.1387 81.2848 76.1401C81.4024 76.1407 81.4476 74.9857 81.3857 73.5736C81.3133 71.9171 81.4184 70.8314 81.6825 70.5135C82.1638 69.9336 82.0632 69.9105 81.2113 70.4058ZM83.5378 70.7005C83.876 71.0744 84.2058 71.3804 84.2704 71.3804C84.335 71.3804 84.3876 71.0744 84.3876 70.7005C84.3876 70.2311 84.1609 70.0206 83.6551 70.0206C82.944 70.0206 82.9406 70.0407 83.5378 70.7005ZM86.0873 73.08C86.0873 75.4792 86.1903 76.1394 86.5642 76.1394C86.8906 76.1394 87.0789 75.6281 87.1591 74.5247C87.3566 71.8178 87.1248 70.0206 86.5778 70.0206C86.1869 70.0206 86.0873 70.6413 86.0873 73.08ZM88.9787 70.7025C89.6549 71.45 90.0257 71.3702 89.7093 70.5451C89.5984 70.2565 89.25 70.0206 88.9346 70.0206C88.4114 70.0206 88.4155 70.0801 88.9787 70.7025ZM93.4104 70.3371C93.3027 70.5112 93.3703 70.7494 93.5603 70.8671C93.7504 70.9843 93.9057 70.8419 93.9057 70.5506C93.9057 69.9533 93.7017 69.8656 93.4104 70.3371ZM94.7028 70.5451C94.3864 71.3702 94.7572 71.45 95.4333 70.7025C95.9966 70.0801 96.0007 70.0206 95.4775 70.0206C95.1621 70.0206 94.8137 70.2565 94.7028 70.5451ZM96.6251 73.08C96.6251 75.9127 96.6755 76.1394 97.305 76.1394C97.9346 76.1394 97.9849 75.9127 97.9849 73.08C97.9849 70.2474 97.9346 70.0206 97.305 70.0206C96.6755 70.0206 96.6251 70.2474 96.6251 73.08ZM99.0777 70.6155C99.3626 70.9429 99.6801 71.4398 99.7834 71.7203C99.8864 72.0007 99.983 71.7329 99.9976 71.1254C100.02 70.2124 99.8973 70.0206 99.2919 70.0206C98.6236 70.0206 98.6046 70.0726 99.0777 70.6155ZM74.8016 70.7685C75.2996 71.2665 75.3417 74.5771 74.8618 75.4741C74.5789 76.0024 74.6133 76.086 75.0443 75.9205C75.7262 75.6587 76.5692 74.0294 76.5692 72.9729C76.5692 72.0772 75.3914 70.3606 74.7768 70.3606C74.5062 70.3606 74.5137 70.4806 74.8016 70.7685ZM91.0149 71.1781C90.6743 72.429 91.0812 73.0885 92.6616 73.8476C93.5338 74.2664 93.9057 74.6678 93.9057 75.1903C93.9057 75.723 94.0101 75.8311 94.2721 75.569C94.4737 75.3674 94.5886 74.7671 94.5271 74.2348C94.4442 73.5144 94.0682 73.0729 93.0559 72.5072C92.3039 72.0867 91.604 71.3994 91.4902 70.9687C91.2927 70.2236 91.2726 70.2324 91.0149 71.1781ZM33.0962 72.6395C32.6937 73.0766 32.6937 73.1952 33.0962 73.4468C33.413 73.645 33.6047 73.5753 33.6792 73.2347C33.8665 72.3798 33.5928 72.1003 33.0962 72.6395ZM87.9386 72.7697C87.8131 72.9729 87.8804 73.3095 88.0885 73.5175C88.3662 73.7952 88.4668 73.697 88.4668 73.148C88.4668 72.3271 88.2904 72.2006 87.9386 72.7697ZM83.3679 74.9286C83.3679 75.8875 83.4899 76.0881 84.0477 76.0459C84.5794 76.0058 84.7276 75.7512 84.7276 74.8772C84.7276 73.9866 84.5896 73.7599 84.0477 73.7599C83.4997 73.7599 83.3679 73.9866 83.3679 74.9286ZM14.022 74.7555C14.022 74.9289 13.7816 75.3113 13.4879 75.6054C13.0022 76.0908 13.0175 76.1394 13.6579 76.1394C14.1821 76.1394 14.3619 75.9225 14.3619 75.2896C14.3619 74.8222 14.2854 74.4397 14.1919 74.4397C14.0985 74.4397 14.022 74.5818 14.022 74.7555ZM90.5064 75.2328C90.5064 75.9344 90.6719 76.1394 91.2389 76.1394C91.9627 76.1394 91.9637 76.1302 91.3277 75.3745C90.9735 74.9537 90.6437 74.5461 90.5951 74.4679C90.5462 74.3901 90.5064 74.7345 90.5064 75.2328ZM39.5956 75.4595C39.2414 76.0265 39.2561 76.1394 39.684 76.1394C39.9699 76.1394 40.1966 75.8389 40.1966 75.4595C40.1966 75.0856 40.1569 74.7797 40.1086 74.7797C40.06 74.7797 39.8292 75.0856 39.5956 75.4595ZM67.986 75.4877C67.4169 76.1112 67.4207 76.1394 68.071 76.1394C68.5241 76.1394 68.7508 75.9127 68.7508 75.4595C68.7508 74.6536 68.7474 74.6539 67.986 75.4877ZM89.4016 75.4877C88.8326 76.1112 88.8363 76.1394 89.4866 76.1394C89.9397 76.1394 90.1665 75.9127 90.1665 75.4595C90.1665 74.6536 90.1631 74.6539 89.4016 75.4877ZM34.4178 75.6295C34.0711 76.0473 34.0945 76.1394 34.5463 76.1394C34.8495 76.1394 35.0977 75.9099 35.0977 75.6295C35.0977 75.349 35.0399 75.1196 34.9692 75.1196C34.8988 75.1196 34.6507 75.349 34.4178 75.6295Z" fill="#BBBEA0"/>
</svg>
