<svg width="298" height="28" viewBox="0 0 298 28" fill="none" xmlns="http://www.w3.org/2000/svg">
<path d="M2 14.4323C8.10887 3.65151 22.4488 4.17774 32.473 4.17774C46.2975 4.17774 55.8087 14.9056 68.3641 19.7695C81.0163 24.6708 95.1803 16.1541 107.4 13.7727C114.541 12.381 121.7 11.5168 128.967 11.7337C138.714 12.0247 147.327 19.1618 156.823 21.0888C166.169 22.9853 174.766 21.6354 183.649 18.1803C187.639 16.6284 191.477 14.7929 195.516 13.3529C204.433 10.1732 214.816 9.92079 224.086 10.3545C233.306 10.7858 241.998 14.8857 251.255 15.3918C256.287 15.6669 263.551 16.6486 267.985 13.143C270.264 11.3407 269.717 6.68334 267.879 4.74744C265.81 2.56718 260.48 1.87164 257.625 2.01889C253.415 2.23596 252.91 11.9858 253.977 15.3318C257.785 27.2676 272.135 26.306 280.988 26.306C286.012 26.306 291.187 27.0468 296 25.2266" stroke="#BCA28E" stroke-width="2.19978" stroke-linecap="round"/>
</svg>
